<?xml version="1.0" encoding="UTF-8"?>
<svg id="Layer_2" data-name="Layer 2" xmlns="http://www.w3.org/2000/svg" viewBox="0 0 1710.82 459.26">
  <defs>
    <style>
      .cls-1 {
        fill: #13144d;
      }

      .cls-2 {
        fill: #02e3a7;
      }
    </style>
  </defs>
  <g id="Layer_1-2" data-name="Layer 1">
    <g>
      <g>
        <path class="cls-1" d="M875.66,179.67c13.58-8.5,28.67-12.81,44.87-12.81,13.11,0,23.74,1.59,31.62,4.72,8.03,3.19,16.49,8.57,25.34,16.11,5.42,4.4,11.52,6.64,18.14,6.64s12.9-2.4,17.96-6.93c5.36-4.8,8.19-11.21,8.19-18.52,0-4.24-.71-8.1-2.13-11.5-1.59-3.76-4.49-7.24-8.34-10.12-13.98-11.28-28.06-19.51-41.84-24.48-13.83-4.99-30.29-7.52-48.93-7.52-26.42,0-50.94,6.72-72.87,19.97-21.84,13.21-39.29,31.34-51.87,53.9-12.56,22.53-18.93,47.65-18.93,74.66s6.36,52.52,18.92,75.16c12.58,22.7,30.05,40.85,51.91,53.94,21.9,13.12,46.41,19.77,72.83,19.77,33.82,0,64.47-10.88,91.11-32.34l.75-.68c5.45-5.45,8.34-12.21,8.34-19.55s-2.31-13.85-6.87-18.78c-4.69-5.06-10.87-7.73-17.89-7.73-5.69,0-11.39,1.99-17.15,6.06-18.63,13.97-38.24,21.06-58.29,21.06-16.2,0-31.29-4.31-44.87-12.81-13.73-8.59-24.79-20.41-32.88-35.13-8.1-14.73-12.21-31.2-12.21-48.98s4.11-33.98,12.23-48.83c8.09-14.81,19.14-26.68,32.87-35.28Z"/>
        <path class="cls-1" d="M1191.68,212.26c-15.86-9.01-33.98-13.58-53.87-13.58s-38.4,4.56-54.36,13.56c-16.08,9.06-28.77,21.81-37.7,37.89-8.87,15.95-13.36,34.34-13.36,54.66s4.5,38.37,13.36,54.31c8.94,16.09,21.62,28.84,37.7,37.9,15.96,8.99,34.24,13.55,54.36,13.55s38.37-4.57,54.21-13.57c15.95-9.05,28.56-21.8,37.5-37.88,8.86-15.96,13.36-34.23,13.36-54.31s-4.56-38.73-13.56-54.71c-9.05-16.05-21.71-28.77-37.64-37.83ZM1189.88,304.8c0,10.9-2.26,20.69-6.73,29.12-4.42,8.36-10.43,14.71-18.36,19.41-7.98,4.72-16.8,7.02-26.98,7.02s-19.01-2.3-26.99-7.02c-7.96-4.72-14.04-11.09-18.58-19.49-4.55-8.39-6.85-18.16-6.85-29.04s2.31-20.73,6.88-29.26c4.54-8.5,10.61-14.91,18.55-19.62,7.98-4.72,16.81-7.02,26.99-7.02s19.01,2.3,26.98,7.02c7.92,4.69,13.92,11.08,18.34,19.55,4.48,8.55,6.75,18.42,6.75,29.33Z"/>
        <path class="cls-1" d="M1469.9,126.36c-5-5-11.76-7.64-19.55-7.64s-14.17,2.6-19.27,7.53c-5.18,5.01-7.93,11.81-7.93,19.67v71.72c-4.96-3.72-10.3-6.95-15.99-9.68-12.81-6.15-26.83-9.28-41.64-9.28-18.39,0-35.32,4.68-50.33,13.92-14.95,9.2-26.86,22.06-35.39,38.23-8.45,16.02-12.74,34.06-12.74,53.61s4.63,37.77,13.74,53.87c9.15,16.14,21.98,29.03,38.11,38.3,16.09,9.25,34.11,13.95,53.56,13.95s37.39-4.7,53.27-13.98c15.86-9.26,28.59-22.12,37.85-38.22,9.25-16.1,13.95-34.24,13.95-53.91v-158.52c0-7.79-2.64-14.55-7.63-19.55h-.01ZM1424.55,304.45c0,10.65-2.31,20.38-6.87,28.91-4.56,8.52-10.66,15.01-18.63,19.83-7.95,4.81-16.64,7.15-26.56,7.15s-18.61-2.34-26.57-7.15c-8.01-4.85-14.17-11.36-18.84-19.91-4.72-8.63-7.01-18.06-7.01-28.84s2.35-20.23,6.99-28.62c4.67-8.45,10.84-14.92,18.86-19.77,7.96-4.81,16.65-7.15,26.57-7.15s18.61,2.34,26.56,7.15c7.99,4.84,14.09,11.29,18.65,19.7,4.55,8.41,6.86,18.06,6.86,28.69Z"/>
        <path class="cls-1" d="M1699.42,248.82c-7.73-15.71-19-28.14-33.48-36.94-14.43-8.76-31.64-13.19-51.14-13.19s-37.59,4.58-53.23,13.61c-15.72,9.07-28.16,21.89-36.96,38.1-8.72,16.06-13.14,34.36-13.14,54.4s4.7,38.48,13.96,54.45c9.3,16.06,22.4,28.78,38.93,37.81,16.39,8.96,35.11,13.5,55.65,13.5,11.65,0,23.96-2.15,36.56-6.4,12.69-4.27,23.54-9.94,32.05-16.7,6.11-4.6,9.34-10.82,9.34-18,0-5.01-1.66-12.35-9.52-18.97-4.32-3.84-9.92-5.78-16.63-5.78s-12.38,1.97-17.2,5.76c-4.04,3.07-9.38,5.75-15.9,7.95-6.51,2.2-12.8,3.32-18.69,3.32-15.51,0-28.16-4.19-38.68-12.8-7.52-6.16-12.81-13.58-15.99-22.51h120.02c7.04,0,13.27-2.42,18.03-6.99h0c4.85-4.67,7.42-10.82,7.42-17.77,0-19.68-3.83-37.46-11.4-52.85ZM1565.88,279.69c3.02-8.26,7.64-15.07,13.97-20.63,8.84-7.77,20.27-11.55,34.95-11.55,12.84,0,22.85,3.67,30.59,11.21,5.75,5.61,9.83,12.53,12.35,20.97h-91.86Z"/>
      </g>
      <path class="cls-2" d="M683.87,223.59c-24.98,0-45.3-20.32-45.3-45.3v-88.91c0-40.46-32.92-73.38-73.37-73.38-7.76,0-14.04,6.29-14.04,14.04s6.29,14.04,14.04,14.04c24.97,0,45.29,20.32,45.29,45.3v88.91c0,24.4,12.01,45.99,30.38,59.34-18.37,13.35-30.38,34.94-30.38,59.34v88.91c0,24.98-20.32,45.3-45.29,45.3-7.76,0-14.04,6.29-14.04,14.04s6.29,14.04,14.04,14.04c40.46,0,73.37-32.92,73.37-73.38v-88.91c0-24.98,20.32-45.3,45.3-45.3,7.76,0,14.04-6.29,14.04-14.04s-6.29-14.04-14.04-14.04Z"/>
      <path class="cls-2" d="M132.72,431.17c-24.98,0-45.3-20.32-45.3-45.3v-88.91c0-24.4-12.02-45.99-30.39-59.34,18.37-13.35,30.39-34.94,30.39-59.34v-88.91c0-24.98,20.32-45.3,45.3-45.3,7.76,0,14.04-6.29,14.04-14.04s-6.29-14.04-14.04-14.04c-40.46,0-73.38,32.92-73.38,73.38v88.91c0,24.98-20.32,45.3-45.3,45.3-7.76,0-14.04,6.29-14.04,14.04s6.29,14.04,14.04,14.04c24.98,0,45.3,20.32,45.3,45.3v88.91c0,40.46,32.92,73.38,73.38,73.38,7.76,0,14.04-6.29,14.04-14.04s-6.29-14.04-14.04-14.04Z"/>
      <g>
        <path class="cls-1" d="M517.38,412.64c-9.22,0-18.34-4.09-24.46-11.91-30.28-38.69-47.64-98.61-47.64-164.4,0-18.54,1.41-36.9,4.19-54.56,2.67-16.94,18.56-28.5,35.49-25.84,16.93,2.67,28.5,18.56,25.84,35.49-2.28,14.48-3.44,29.59-3.44,44.91,0,50.65,13.2,98.98,34.45,126.14,10.57,13.5,8.19,33.01-5.31,43.57-5.68,4.44-12.42,6.6-19.11,6.6Z"/>
        <circle class="cls-1" cx="496.83" cy="110.51" r="33.2"/>
        <circle class="cls-1" cx="286.81" cy="134.17" r="33.2"/>
        <path class="cls-1" d="M383.06,236.33c0-50.65,13.2-98.98,34.45-126.14,10.57-13.5,8.19-33.01-5.31-43.57-13.5-10.57-33.01-8.18-43.57,5.31-15.69,20.04-27.87,45.82-36.01,75.12v-.15c-6.91,24.33-23.27,40.26-45.81,40.26s-38.9-15.94-45.81-40.26v.15c-8.14-29.3-20.32-55.07-36.01-75.12-10.56-13.5-30.08-15.88-43.57-5.31-13.5,10.56-15.88,30.07-5.31,43.57,21.25,27.16,34.45,75.49,34.45,126.14s-13.2,98.98-34.45,126.14c-10.57,13.5-8.19,33.01,5.31,43.57,5.68,4.45,12.42,6.6,19.11,6.6,9.22,0,18.35-4.09,24.47-11.91,15.69-20.04,27.87-45.82,36.01-75.12v2.75c6.91-24.33,23.27-40.26,45.81-40.26s38.9,15.94,45.81,40.26v-2.75c8.14,29.3,20.32,55.07,36.01,75.12,6.12,7.82,15.25,11.91,24.47,11.91,6.69,0,13.43-2.15,19.11-6.6,13.5-10.56,15.88-30.07,5.31-43.57-21.25-27.16-34.45-75.49-34.45-126.14Z"/>
        <path class="cls-2" d="M284.11,74.19l-6.36-64.28c-.72-13.19,18.84-13.22,18.13,0,0,0-6.36,64.28-6.36,64.28-.3,3.2-5.13,3.21-5.41,0h0Z"/>
        <path class="cls-2" d="M301.46,77.39l21.15-49.35c5.9-12.14,23.27-2.14,15.7,9.06,0,0-32.16,42.99-32.16,42.99-1.88,2.55-5.97.18-4.69-2.71h0Z"/>
        <path class="cls-2" d="M267.47,80.1l-32.16-42.99c-7.61-11.12,9.86-21.23,15.7-9.06,0,0,21.15,49.35,21.15,49.35,1.27,2.9-2.83,5.26-4.69,2.71h0Z"/>
      </g>
    </g>
  </g>
</svg>