<?xml version="1.0" encoding="UTF-8"?>
<svg id="Layer_2" data-name="Layer 2" xmlns="http://www.w3.org/2000/svg" viewBox="0 0 252.44 252.44">
  <defs>
    <style>
      .cls-1 {
        fill: #13144d;
      }

      .cls-2 {
        fill: #fff;
      }

      .cls-3 {
        fill: #02e3a7;
      }
    </style>
  </defs>
  <g id="Layer_1-2" data-name="Layer 1">
    <rect class="cls-3" width="252.44" height="252.44" rx="41.14" ry="41.14"/>
    <g>
      <path class="cls-1" d="M222.28,238.79c-5.03,0-10.01-2.23-13.35-6.5-16.52-21.11-25.99-53.8-25.99-89.69,0-10.11.77-20.13,2.29-29.77,1.46-9.24,10.13-15.55,19.36-14.1,9.24,1.45,15.55,10.12,14.1,19.36-1.24,7.9-1.88,16.14-1.88,24.5,0,27.63,7.2,54,18.8,68.82,5.76,7.37,4.47,18.01-2.9,23.77-3.1,2.42-6.77,3.6-10.43,3.6Z"/>
      <circle class="cls-1" cx="211.07" cy="73.95" r="18.11"/>
      <circle class="cls-1" cx="96.49" cy="86.86" r="18.11"/>
      <path class="cls-1" d="M149,142.59c0-27.63,7.2-54,18.8-68.82,5.76-7.37,4.47-18.01-2.9-23.77-7.37-5.77-18.01-4.46-23.77,2.9-8.56,10.94-15.21,25-19.64,40.98v-.08c-3.77,13.27-12.7,21.97-24.99,21.97s-21.22-8.7-24.99-21.97v.08c-4.44-15.99-11.09-30.05-19.64-40.98-5.76-7.37-16.41-8.67-23.77-2.9-7.37,5.76-8.66,16.41-2.9,23.77,11.59,14.82,18.8,41.19,18.8,68.82s-7.2,54-18.8,68.82c-5.76,7.37-4.47,18.01,2.9,23.77,3.1,2.43,6.77,3.6,10.42,3.6,5.03,0,10.01-2.23,13.35-6.5,8.56-10.94,15.21-25,19.64-40.98v1.5c3.77-13.27,12.7-21.97,24.99-21.97s21.22,8.7,24.99,21.97v-1.5c4.44,15.99,11.09,30.05,19.64,40.98,3.34,4.27,8.32,6.5,13.35,6.5,3.65,0,7.33-1.18,10.42-3.6,7.37-5.76,8.66-16.41,2.9-23.77-11.59-14.82-18.8-41.19-18.8-68.82Z"/>
      <path class="cls-2" d="M95.01,54.13l-3.47-35.07c-.39-7.2,10.28-7.21,9.89,0,0,0-3.47,35.07-3.47,35.07-.16,1.75-2.8,1.75-2.95,0h0Z"/>
      <path class="cls-2" d="M104.48,55.88l11.54-26.92c3.22-6.62,12.69-1.17,8.57,4.95,0,0-17.55,23.45-17.55,23.45-1.02,1.39-3.26.1-2.56-1.48h0Z"/>
      <path class="cls-2" d="M85.94,57.36l-17.55-23.45c-4.15-6.07,5.38-11.58,8.57-4.94,0,0,11.54,26.92,11.54,26.92.69,1.58-1.54,2.87-2.56,1.48h0Z"/>
    </g>
  </g>
</svg>