<?xml version="1.0" encoding="UTF-8"?>
<svg id="Layer_2" data-name="Layer 2" xmlns="http://www.w3.org/2000/svg" xmlns:xlink="http://www.w3.org/1999/xlink" viewBox="0 0 1821.91 1821.91">
  <defs>
    <style>
      .cls-1 {
        fill: #13144d;
      }

      .cls-2 {
        fill: #fff;
      }

      .cls-3 {
        fill: none;
      }

      .cls-4 {
        fill: #02e3a7;
      }

      .cls-5 {
        clip-path: url(#clippath);
      }
    </style>
    <clipPath id="clippath">
      <circle class="cls-3" cx="910.96" cy="910.96" r="910.96"/>
    </clipPath>
  </defs>
  <g id="Layer_1-2" data-name="Layer 1">
    <g class="cls-5">
      <circle class="cls-2" cx="910.96" cy="910.96" r="910.96"/>
      <g>
        <circle class="cls-1" cx="910.96" cy="1058.07" r="175.66"/>
        <path class="cls-1" d="M1420.19,1598.56c0-267.97,69.86-523.7,182.29-667.38,55.9-71.43,43.31-174.65-28.12-230.54-71.44-55.92-174.66-43.29-230.54,28.12-82.99,106.05-147.45,242.4-190.5,397.43v-.79c-36.55,128.7-123.13,213.03-242.36,213.03s-205.81-84.33-242.36-213.03v.79c-43.05-155.03-107.51-291.39-190.5-397.43-55.89-71.44-159.12-84.03-230.54-28.12-71.43,55.89-84.02,159.11-28.12,230.54,112.43,143.68,182.29,399.41,182.29,667.38s-69.86,523.69-182.29,667.37c-55.9,71.43-43.31,174.65,28.12,230.54,30.05,23.52,65.7,34.91,101.09,34.91,48.78,0,97.06-21.64,129.45-63.03,82.99-106.05,147.45-242.4,190.5-397.43v14.53c36.55-128.7,123.13-213.03,242.36-213.03s205.81,84.33,242.36,213.03v-14.53c43.05,155.03,107.51,291.38,190.5,397.43,32.38,41.39,80.67,63.03,129.45,63.03,35.4,0,71.06-11.4,101.09-34.91,71.43-55.89,84.02-159.11,28.12-230.54-112.43-143.68-182.29-399.41-182.29-667.37Z"/>
        <path class="cls-4" d="M896.63,740.72l-33.63-340.11c-3.8-69.8,99.66-69.96,95.9,0,0,0-33.63,340.11-33.63,340.11-1.57,16.96-27.13,16.99-28.65,0h0Z"/>
        <path class="cls-4" d="M988.47,757.65l111.9-261.08c31.23-64.23,123.1-11.33,83.06,47.96,0,0-170.16,227.45-170.16,227.45-9.92,13.51-31.57.96-24.8-14.32h0Z"/>
        <path class="cls-4" d="M808.64,771.97l-170.16-227.45c-40.24-58.83,52.16-112.32,83.06-47.95,0,0,111.9,261.08,111.9,261.08,6.73,15.35-14.95,27.82-24.8,14.32h0Z"/>
      </g>
    </g>
  </g>
</svg>