<?xml version="1.0" encoding="UTF-8"?>
<svg id="Layer_2" data-name="Layer 2" xmlns="http://www.w3.org/2000/svg" viewBox="0 0 1684.24 1051.63">
  <defs>
    <style>
      .cls-1 {
        fill: none;
        stroke: #fff;
        stroke-linecap: round;
        stroke-linejoin: round;
        stroke-width: 156.94px;
      }

      .cls-2 {
        fill: #02e3a7;
      }
    </style>
  </defs>
  <g id="Layer_1-2" data-name="Layer 1">
    <g>
      <g>
        <path class="cls-2" d="M291.24,817.13c0,29.98,13.3,59.65,38.74,79.56,125.82,98.46,320.68,154.94,534.61,154.94,60.29,0,119.99-4.59,177.44-13.63,55.08-8.68,92.68-60.37,84.01-115.42-8.67-55.07-60.34-92.69-115.42-84.01-47.1,7.41-96.23,11.18-146.04,11.18-164.71,0-321.89-42.93-410.19-112.04-43.9-34.36-107.35-26.62-141.7,17.28-14.45,18.46-21.46,40.38-21.46,62.14Z"/>
        <circle class="cls-2" cx="1273.74" cy="883.94" r="107.96"/>
      </g>
      <path class="cls-1" d="M78.47,334.01c56.44-56.44,199.1-199.1,255.54-255.54,56.44,56.44,199.1,199.1,255.54,255.54"/>
      <path class="cls-1" d="M1094.69,334.01c56.44-56.44,199.1-199.1,255.54-255.54,56.44,56.44,199.1,199.1,255.54,255.54"/>
    </g>
  </g>
</svg>