<?xml version="1.0" encoding="UTF-8"?>
<svg id="Layer_2" data-name="Layer 2" xmlns="http://www.w3.org/2000/svg" viewBox="0 0 1617.65 434.24">
  <defs>
    <style>
      .cls-1 {
        fill: #fff;
      }

      .cls-2 {
        fill: #02e3a7;
      }
    </style>
  </defs>
  <g id="Layer_1-2" data-name="Layer 1">
    <g>
      <path class="cls-2" d="M646.63,211.41c-23.62,0-42.83-19.21-42.83-42.83v-84.07c0-38.26-31.12-69.38-69.38-69.38-7.33,0-13.28,5.94-13.28,13.28s5.94,13.28,13.28,13.28c23.61,0,42.83,19.21,42.83,42.83v84.07c0,23.07,11.36,43.48,28.73,56.11-17.37,12.62-28.73,33.04-28.73,56.11v84.07c0,23.62-19.21,42.83-42.83,42.83-7.33,0-13.28,5.94-13.28,13.28s5.94,13.28,13.28,13.28c38.25,0,69.38-31.12,69.38-69.38v-84.07c0-23.62,19.21-42.83,42.83-42.83,7.33,0,13.28-5.94,13.28-13.28s-5.94-13.28-13.28-13.28Z"/>
      <path class="cls-2" d="M125.49,407.69c-23.62,0-42.83-19.21-42.83-42.83v-84.07c0-23.07-11.36-43.48-28.73-56.11,17.37-12.62,28.73-33.04,28.73-56.11v-84.07c0-23.62,19.21-42.83,42.83-42.83,7.33,0,13.28-5.94,13.28-13.28s-5.94-13.28-13.28-13.28c-38.26,0-69.38,31.12-69.38,69.38v84.07c0,23.62-19.21,42.83-42.83,42.83-7.33,0-13.28,5.94-13.28,13.28s5.94,13.28,13.28,13.28c23.62,0,42.83,19.21,42.83,42.83v84.07c0,38.26,31.12,69.38,69.38,69.38,7.33,0,13.28-5.94,13.28-13.28s-5.94-13.28-13.28-13.28Z"/>
      <g>
        <path class="cls-1" d="M827.97,178.83c12.84-8.04,27.11-12.11,42.42-12.11,12.39,0,22.45,1.5,29.89,4.46,7.59,3.02,15.6,8.1,23.96,15.23,5.13,4.16,10.89,6.27,17.15,6.27s12.19-2.27,16.98-6.56c5.07-4.54,7.74-10.6,7.74-17.51,0-4.01-.67-7.66-2.02-10.87-1.5-3.56-4.24-6.84-7.89-9.57-13.22-10.66-26.53-18.45-39.56-23.15-13.07-4.71-28.64-7.11-46.26-7.11-24.99,0-48.16,6.35-68.9,18.88-20.65,12.49-37.15,29.64-49.04,50.97-11.88,21.3-17.9,45.05-17.9,70.59s6.02,49.66,17.89,71.07c11.9,21.47,28.41,38.63,49.08,51.01,20.71,12.41,43.88,18.69,68.87,18.69,31.98,0,60.96-10.29,86.15-30.58l.71-.64c5.16-5.15,7.88-11.54,7.88-18.49s-2.18-13.1-6.49-17.75c-4.43-4.78-10.28-7.3-16.92-7.3-5.38,0-10.77,1.88-16.21,5.73-17.62,13.21-36.16,19.91-55.12,19.91-15.32,0-29.59-4.08-42.43-12.12-12.98-8.12-23.44-19.3-31.09-33.22-7.66-13.92-11.55-29.5-11.55-46.31s3.89-32.13,11.56-46.17c7.65-14.01,18.1-25.23,31.08-33.36Z"/>
        <path class="cls-1" d="M1126.78,209.65c-15-8.52-32.13-12.84-50.94-12.84s-36.3,4.31-51.4,12.82c-15.21,8.57-27.2,20.62-35.64,35.82-8.38,15.08-12.64,32.47-12.64,51.68s4.25,36.28,12.63,51.35c8.45,15.22,20.44,27.27,35.65,35.83,15.09,8.5,32.38,12.82,51.4,12.82s36.28-4.32,51.26-12.83c15.08-8.56,27.01-20.61,35.46-35.82,8.38-15.09,12.63-32.37,12.63-51.35s-4.31-36.62-12.82-51.73c-8.55-15.17-20.53-27.21-35.59-35.77ZM1125.08,297.15c0,10.3-2.14,19.57-6.36,27.53-4.18,7.9-9.86,13.91-17.36,18.35-7.54,4.47-15.89,6.64-25.51,6.64s-17.98-2.17-25.52-6.64c-7.53-4.46-13.27-10.48-17.57-18.43-4.3-7.93-6.48-17.17-6.48-27.45s2.19-19.6,6.51-27.66c4.29-8.03,10.03-14.1,17.54-18.55,7.54-4.47,15.89-6.64,25.52-6.64s17.97,2.17,25.51,6.64c7.49,4.44,13.16,10.48,17.34,18.48,4.23,8.09,6.38,17.42,6.38,27.73Z"/>
        <path class="cls-1" d="M1389.85,128.43c-4.73-4.72-11.12-7.22-18.48-7.22s-13.4,2.46-18.22,7.12c-4.9,4.74-7.5,11.17-7.5,18.6v67.82c-4.69-3.52-9.74-6.57-15.12-9.15-12.12-5.82-25.36-8.77-39.38-8.77-17.39,0-33.4,4.43-47.59,13.16-14.14,8.7-25.4,20.86-33.47,36.15-7.99,15.15-12.04,32.2-12.04,50.69s4.37,35.71,12.99,50.93c8.66,15.26,20.78,27.45,36.04,36.21,15.22,8.75,32.26,13.19,50.65,13.19s35.35-4.45,50.37-13.22c14.99-8.76,27.04-20.92,35.79-36.14,8.75-15.23,13.19-32.38,13.19-50.98v-149.89c0-7.36-2.49-13.76-7.21-18.48h-.01ZM1346.97,296.82c0,10.07-2.19,19.27-6.5,27.34-4.31,8.06-10.08,14.19-17.62,18.75-7.51,4.55-15.73,6.76-25.11,6.76s-17.6-2.21-25.12-6.76c-7.57-4.58-13.4-10.74-17.82-18.82-4.46-8.16-6.63-17.08-6.63-27.27s2.22-19.13,6.61-27.06c4.41-7.99,10.25-14.1,17.83-18.7,7.53-4.55,15.74-6.77,25.12-6.77s17.59,2.21,25.11,6.76c7.56,4.58,13.32,10.67,17.64,18.63,4.3,7.95,6.48,17.08,6.48,27.13Z"/>
        <path class="cls-1" d="M1606.87,244.22c-7.31-14.86-17.96-26.61-31.66-34.93-13.65-8.28-29.92-12.48-48.36-12.48s-35.54,4.33-50.33,12.87c-14.86,8.58-26.62,20.7-34.95,36.02-8.24,15.18-12.42,32.49-12.42,51.44s4.44,36.38,13.2,51.49c8.8,15.19,21.18,27.22,36.81,35.75,15.5,8.47,33.2,12.76,52.62,12.76,11.02,0,22.65-2.04,34.57-6.05,12-4.04,22.26-9.4,30.3-15.79,5.78-4.35,8.83-10.23,8.83-17.02,0-4.74-1.57-11.68-9-17.94-4.09-3.63-9.38-5.47-15.72-5.47s-11.71,1.86-16.27,5.44c-3.82,2.91-8.87,5.44-15.04,7.52-6.15,2.08-12.1,3.14-17.67,3.14-14.66,0-26.63-3.96-36.57-12.1-7.11-5.83-12.11-12.84-15.12-21.28h113.49c6.66,0,12.55-2.28,17.05-6.6h0c4.59-4.42,7.02-10.23,7.02-16.8,0-18.61-3.62-35.42-10.78-49.97ZM1480.6,273.41c2.86-7.81,7.22-14.25,13.21-19.51,8.36-7.35,19.17-10.92,33.05-10.92,12.14,0,21.6,3.47,28.92,10.6,5.44,5.31,9.3,11.85,11.68,19.83h-86.86Z"/>
      </g>
      <path class="cls-1" d="M489.2,390.17c-8.72,0-17.35-3.87-23.13-11.26-28.63-36.58-45.05-93.24-45.05-155.45,0-17.53,1.33-34.89,3.96-51.59,2.52-16.01,17.55-26.95,33.56-24.43,16.01,2.52,26.95,17.55,24.43,33.56-2.16,13.69-3.25,27.98-3.25,42.46,0,47.89,12.48,93.59,32.58,119.27,9.99,12.77,7.74,31.21-5.03,41.2-5.37,4.2-11.74,6.24-18.07,6.24Z"/>
      <circle class="cls-1" cx="469.78" cy="104.5" r="31.39"/>
      <circle class="cls-1" cx="271.19" cy="126.87" r="31.39"/>
      <g>
        <g>
          <path class="cls-1" d="M371.69,390.17c-8.72,0-17.35-3.87-23.13-11.26-28.63-36.59-45.05-93.24-45.05-155.45s16.42-118.86,45.05-155.45c9.99-12.76,28.43-15.02,41.2-5.03,12.77,9.99,15.02,28.44,5.03,41.2-20.09,25.68-32.58,71.38-32.58,119.27s12.48,93.59,32.58,119.27c9.99,12.77,7.74,31.21-5.03,41.2-5.37,4.2-11.74,6.24-18.07,6.24Z"/>
          <path class="cls-1" d="M170.7,390.17c-6.33,0-12.7-2.04-18.07-6.24-12.77-9.99-15.02-28.44-5.03-41.2,20.09-25.68,32.58-71.38,32.58-119.27s-12.48-93.59-32.58-119.27c-9.99-12.77-7.74-31.21,5.03-41.2,12.76-9.99,31.21-7.74,41.2,5.03,28.63,36.59,45.05,93.24,45.05,155.45s-16.42,118.86-45.05,155.45c-5.79,7.4-14.42,11.26-23.13,11.26Z"/>
        </g>
        <path class="cls-1" d="M227.88,310.48c6.53-23,22-38.07,43.31-38.07,21.31,0,36.78,15.07,43.31,38.07v-171.58c-6.53,23-22,38.07-43.31,38.07-21.31,0-36.78-15.07-43.31-38.07"/>
      </g>
      <path class="cls-2" d="M268.63,70.15l-6.01-60.78c-.68-12.47,17.81-12.5,17.14,0,0,0-6.01,60.78-6.01,60.78-.28,3.03-4.85,3.04-5.12,0h0Z"/>
      <path class="cls-2" d="M285.05,73.18l20-46.66c5.58-11.48,22-2.02,14.84,8.57,0,0-30.41,40.65-30.41,40.65-1.77,2.41-5.64.17-4.43-2.56h0Z"/>
      <path class="cls-2" d="M252.91,75.74l-30.41-40.65c-7.19-10.51,9.32-20.07,14.84-8.57,0,0,20,46.66,20,46.66,1.2,2.74-2.67,4.97-4.43,2.56h0Z"/>
    </g>
  </g>
</svg>